Coordinates
version=1
nRows=7
nColumns=40
inDegrees=yes

Units are S.I. units (second, meters, Newtons, ...)
If the header above contains a line with 'inDegrees', this indicates whether rotational values are in degrees (yes) or radians (no).

endheader
time	pelvis_tilt	pelvis_list	pelvis_rotation	pelvis_tx	pelvis_ty	pelvis_tz	hip_flexion_r	hip_adduction_r	hip_rotation_r	knee_angle_r	knee_angle_r_beta	ankle_angle_r	subtalar_angle_r	mtp_angle_r	hip_flexion_l	hip_adduction_l	hip_rotation_l	knee_angle_l	knee_angle_l_beta	ankle_angle_l	subtalar_angle_l	mtp_angle_l	lumbar_extension	lumbar_bending	lumbar_rotation	arm_flex_r	arm_add_r	arm_rot_r	elbow_flex_r	pro_sup_r	wrist_flex_r	wrist_dev_r	arm_flex_l	arm_add_l	arm_rot_l	elbow_flex_l	pro_sup_l	wrist_flex_l	wrist_dev_l
      3.25500000	    -31.01887720	     14.53489412	      3.58132237	      0.17842691	      0.83185930	     -1.17003935	     57.03089110	    -40.42235846	    -13.01695023	     29.31035532	      0.51156221	     -5.80419198	     -2.92438388	      0.00000000	     44.87651911	    -10.84670455	    -32.76163401	     20.23653018	      0.35319408	    -10.03719345	      9.10421146	      0.00000000	      0.00000000	      0.00000000	      0.00000000	     43.88960965	    -16.92894171	     43.88960965	     75.77667311	     44.80795633	      0.00000000	      0.00000000	     43.88960965	    -16.92894171	     43.88960965	     75.77667311	     44.80795633	      0.00000000	      0.00000000
      3.26000000	    -31.06379435	     14.43863858	      3.68338301	      0.17774066	      0.83138069	     -1.17016458	     57.18023554	    -40.44275876	    -12.94347590	     29.52530381	      0.51531376	     -5.81241540	     -3.06617373	      0.00000000	     45.13889966	    -10.92643324	    -32.54825573	     20.46223853	      0.35713343	    -10.05745789	      8.92090654	      0.00000000	      0.00000000	      0.00000000	      0.00000000	     43.89550272	    -16.91278019	     43.89550272	     75.76515908	     44.81392513	      0.00000000	      0.00000000	     43.89550272	    -16.91278019	     43.89550272	     75.76515908	     44.81392513	      0.00000000	      0.00000000
      3.26500000	    -31.49296599	     14.17944278	      3.97586446	      0.17664239	      0.83014507	     -1.17071367	     57.67492698	    -40.48064392	    -13.06290852	     29.82664446	      0.52057315	     -5.81528105	     -3.19453817	      0.00000000	     45.96973092	    -11.05549601	    -32.02883659	     20.85772104	      0.36403591	    -10.06297991	      8.53011069	      0.00000000	      0.00000000	      0.00000000	      0.00000000	     43.90387535	    -16.88954911	     43.90387535	     75.74815756	     44.82350107	      0.00000000	      0.00000000	     43.90387535	    -16.88954911	     43.90387535	     75.74815756	     44.82350107	      0.00000000	      0.00000000
      3.27000000	    -31.73878060	     13.94348622	      4.13605529	      0.17564561	      0.82918509	     -1.17095022	     57.97786293	    -40.42509893	    -13.08715204	     30.06439257	      0.52472264	     -5.81607107	     -3.38045441	      0.00000000	     46.58105409	    -11.27723341	    -31.70701876	     21.28666437	      0.37152238	    -10.00144682	      8.37085995	      0.00000000	      0.00000000	      0.00000000	      0.00000000	     43.91938738	    -16.84716842	     43.91938738	     75.71825888	     44.83839178	      0.00000000	      0.00000000	     43.91938738	    -16.84716842	     43.91938738	     75.71825888	     44.83839178	      0.00000000	      0.00000000
      3.27500000	    -31.90694355	     13.62899618	      4.04933052	      0.17468601	      0.82825522	     -1.17055348	     58.26026805	    -40.09678448	    -13.10299277	     30.33399532	      0.52942809	     -5.76222536	     -3.52360187	      0.00000000	     47.10580275	    -11.83639453	    -31.68728631	     21.82922700	      0.38099188	     -9.83280125	      8.51809222	      0.00000000	      0.00000000	      0.00000000	      0.00000000	     43.93223825	    -16.81255102	     43.93223825	     75.69461317	     44.84902657	      0.00000000	      0.00000000	     43.93223825	    -16.81255102	     43.93223825	     75.69461317	     44.84902657	      0.00000000	      0.00000000
      3.28000000	    -32.28789426	     13.42723172	      4.48761878	      0.17360868	      0.82707642	     -1.17147729	     58.65920256	    -40.35091302	    -13.27662780	     30.62533427	      0.53451292	     -5.73420704	     -3.62050392	      0.00000000	     47.88716669	    -11.70543506	    -30.97060974	     22.10768824	      0.38585195	     -9.90177733	      7.95062990	      0.00000000	      0.00000000	      0.00000000	      0.00000000	     43.94795499	    -16.77025618	     43.94795499	     75.66571332	     44.86232901	      0.00000000	      0.00000000	     43.94795499	    -16.77025618	     43.94795499	     75.66571332	     44.86232901	      0.00000000	      0.00000000
      3.28500000	    -32.40726033	     13.10184783	      4.42515293	      0.17266157	      0.82617943	     -1.17115486	     58.85225415	    -40.05531477	    -13.33052839	     30.88032910	      0.53896342	     -5.68861352	     -3.77217018	      0.00000000	     48.38774589	    -12.24000743	    -30.91100012	     22.66228544	      0.39553150	     -9.76627540	      8.04946370	      0.00000000	      0.00000000	      0.00000000	      0.00000000	     43.95875820	    -16.74144297	     43.95875820	     75.64643455	     44.87059155	      0.00000000	      0.00000000	     43.95875820	    -16.74144297	     43.95875820	     75.64643455	     44.87059155	      0.00000000	      0.00000000
